{"title":"Ki-duk Kim - Pieta (2012)","uid":7972602,"size":1421238144,"categoryP":"video","categoryS":"movies","magnet":"?xt=urn:btih:0ee648c4fab32611b77aff07e3c98db9aa1976b3&amp;dn=Ki-duk+Kim+-+Pieta+%282012%29&amp;tr=udp%3A%2F%2Ftracker.openbittorrent.com%3A80&amp;tr=udp%3A%2F%2Fopen.demonii.com%3A1337&amp;tr=udp%3A%2F%2Ftracker.coppersurfer.tk%3A6969&amp;tr=udp%3A%2F%2Fexodus.desync.com%3A6969","seeders":6,"leechers":0,"uploader":"moonflux","files":-1,"time":1356897656,"description":"Complete name : c:Pieta.2012.DVDRip.AC3.x264-theonlyh.mkv\nFormat : Matroska\nFormat version : Version 2\nFile size : 1.32 GiB\nDuration : 1h 42mn\nOverall bit rate : 1 844 Kbps\nWriting application : HandBrake 0.9.8\nWriting library : libmkv 0.6.5\nVideo #1\nID : 1\nFormat : AVC\nFormat/Info : Advanced Video Codec\nFormat profile : &lt;a class=&quot;__cf_email__&quot; href=&quot;/cdn-cgi/l/email-protection&quot; data-cfemail=&quot;4c04252b240c007f627c&quot;&gt;[email&amp;#160;protected]&lt;/a&gt;&lt;script cf-hash='f9e31' type=&quot;text/javascript&quot;&gt;\n/* &lt;![CDATA[ */!function(){try{var t=&quot;currentScript&quot;in document?document.currentScript:function(){for(var t=document.getElementsByTagName(&quot;script&quot;),e=t.length;e--;)if(t[e].getAttribute(&quot;cf-hash&quot;))return t[e]}();if(t&amp;&amp;t.previousSibling){var e,r,n,i,c=t.previousSibling,a=c.getAttribute(&quot;data-cfemail&quot;);if(a){for(e=&quot;&quot;,r=parseInt(a.substr(0,2),16),n=2;a.length-n;n+=2)i=parseInt(a.substr(n,2),16)^r,e+=String.fromCharCode(i);e=document.createTextNode(e),c.parentNode.replaceChild(e,c)}}}catch(u){}}();/* ]]&gt; */&lt;/script&gt;\nFormat settings, CABAC : Yes\nFormat settings, ReFrames : 4 frames\nCodec ID : V_MPEG4/ISO/AVC\nDuration : 1h 42mn\nBit rate : 1 400 Kbps\nWidth : 720 pixels\nHeight : 400 pixels\nDisplay aspect ratio : 1.85:1\nOriginal display aspect ratio : 1.85:1\nFrame rate mode : Variable / Variable\nFrame rate : 23.976 fps\nColor space : YUV\nChroma subsampling : 4:2:0\nBit depth : 8 bits\nScan type : Progressive\nBits/(Pixel*Frame) : 0.203\nStream size : 999 MiB (74%)\nWriting library : x264 core 120\n\nLanguage : English\nDefault : Yes\nForced : No\n\nAudio #2\nID : 2\nFormat : AC-3\nFormat/Info : Audio Coding 3\nMode extension : CM (complete main)\nFormat settings, Endianness : Big\nCodec ID : A_AC3\nDuration : 1h 42mn\nBit rate mode : Constant\nBit rate : 448 Kbps\nChannel(s) : 6 channels\nChannel positions : Front: L C R, Side: L R, LFE\nSampling rate : 48.0 KHz\nBit depth : 16 bits\nCompression mode : Lossy\nStream size : 329 MiB (24%)\nLanguage : Korean\nDefault : Yes\nForced : No\nText #3\nID : 3\nFormat : VobSub\nCodec ID : S_VOBSUB\nCodec ID/Info : The same subtitle format used on DVDs\nLanguage : English\nDefault : No\nForced : No\nText #4\nID : 4\nFormat : VobSub\nCodec ID : S_VOBSUB\nCodec ID/Info : The same subtitle format used on DVDs\nLanguage : Korean\nDefault : No\nForced : No","torrent":{"xt":"urn:btih:0ee648c4fab32611b77aff07e3c98db9aa1976b3","amp;dn":"Ki-duk+Kim+-+Pieta+%282012%29","amp;tr":["udp%3A%2F%2Ftracker.openbittorrent.com%3A80","udp%3A%2F%2Fopen.demonii.com%3A1337","udp%3A%2F%2Ftracker.coppersurfer.tk%3A6969","udp%3A%2F%2Fexodus.desync.com%3A6969"],"infoHash":"0ee648c4fab32611b77aff07e3c98db9aa1976b3","infoHashBuffer":{"type":"Buffer","data":[14,230,72,196,250,179,38,17,183,122,255,7,227,201,141,185,170,25,118,179]},"announce":[],"urlList":[]}}